<mxfile host="Electron" modified="2024-07-24T10:36:43.936Z" agent="Mozilla/5.0 (Macintosh; Intel Mac OS X 10_15_7) AppleWebKit/537.36 (KHTML, like Gecko) draw.io/24.6.4 Chrome/124.0.6367.207 Electron/30.0.6 Safari/537.36" etag="6aaAI7ffmqGjmqP3UiyL" version="24.6.4" type="device">
  <diagram name="Page-1" id="-_7ixsscyCjgbBFooExJ">
    <mxGraphModel dx="2074" dy="1214" grid="1" gridSize="10" guides="1" tooltips="1" connect="1" arrows="1" fold="1" page="0" pageScale="1" pageWidth="827" pageHeight="1169" math="0" shadow="1">
      <root>
        <mxCell id="0" />
        <mxCell id="1" parent="0" />
        <mxCell id="YOo0viPbgiajMBb47PIU-1" value="" style="edgeStyle=orthogonalEdgeStyle;rounded=0;orthogonalLoop=1;jettySize=auto;html=1;" parent="1" source="YOo0viPbgiajMBb47PIU-2" target="YOo0viPbgiajMBb47PIU-4" edge="1">
          <mxGeometry relative="1" as="geometry" />
        </mxCell>
        <mxCell id="YOo0viPbgiajMBb47PIU-2" value="Constructor" style="rounded=1;whiteSpace=wrap;html=1;fontSize=12;glass=0;strokeWidth=1;shadow=0;" parent="1" vertex="1">
          <mxGeometry x="240" y="41" width="200" height="40" as="geometry" />
        </mxCell>
        <mxCell id="RuaqV-nIeXjpc7R5jFOg-7" style="edgeStyle=orthogonalEdgeStyle;rounded=0;orthogonalLoop=1;jettySize=auto;html=1;entryX=0.5;entryY=0;entryDx=0;entryDy=0;" edge="1" parent="1" source="YOo0viPbgiajMBb47PIU-4" target="RuaqV-nIeXjpc7R5jFOg-5">
          <mxGeometry relative="1" as="geometry" />
        </mxCell>
        <mxCell id="YOo0viPbgiajMBb47PIU-4" value="InitEvent" style="rounded=1;whiteSpace=wrap;html=1;" parent="1" vertex="1">
          <mxGeometry x="240" y="121" width="200" height="40" as="geometry" />
        </mxCell>
        <mxCell id="YOo0viPbgiajMBb47PIU-5" style="edgeStyle=orthogonalEdgeStyle;rounded=0;orthogonalLoop=1;jettySize=auto;html=1;entryX=0.5;entryY=0;entryDx=0;entryDy=0;" parent="1" source="YOo0viPbgiajMBb47PIU-6" target="YOo0viPbgiajMBb47PIU-8" edge="1">
          <mxGeometry relative="1" as="geometry" />
        </mxCell>
        <mxCell id="YOo0viPbgiajMBb47PIU-6" value="BeforeShowEvent" style="whiteSpace=wrap;html=1;rounded=1;" parent="1" vertex="1">
          <mxGeometry x="240" y="880" width="200" height="40" as="geometry" />
        </mxCell>
        <mxCell id="YOo0viPbgiajMBb47PIU-8" value="AfterShowEvent" style="whiteSpace=wrap;html=1;rounded=1;" parent="1" vertex="1">
          <mxGeometry x="240" y="960" width="200" height="40" as="geometry" />
        </mxCell>
        <mxCell id="RuaqV-nIeXjpc7R5jFOg-11" style="edgeStyle=orthogonalEdgeStyle;rounded=0;orthogonalLoop=1;jettySize=auto;html=1;entryX=0.5;entryY=0;entryDx=0;entryDy=0;" edge="1" parent="1" source="YOo0viPbgiajMBb47PIU-11" target="RuaqV-nIeXjpc7R5jFOg-10">
          <mxGeometry relative="1" as="geometry" />
        </mxCell>
        <mxCell id="YOo0viPbgiajMBb47PIU-11" value="setEntityToEdit&lt;div&gt;&lt;div&gt;(from calling code)&lt;/div&gt;&lt;/div&gt;" style="shape=process;whiteSpace=wrap;html=1;backgroundOutline=1;rounded=1;fillColor=#f5f5f5;strokeColor=#666666;fontColor=#333333;" parent="1" vertex="1">
          <mxGeometry x="240" y="280" width="200" height="40" as="geometry" />
        </mxCell>
        <mxCell id="YOo0viPbgiajMBb47PIU-81" style="edgeStyle=orthogonalEdgeStyle;rounded=0;orthogonalLoop=1;jettySize=auto;html=1;exitX=0;exitY=0.5;exitDx=0;exitDy=0;" parent="1" source="YOo0viPbgiajMBb47PIU-16" target="YOo0viPbgiajMBb47PIU-18" edge="1">
          <mxGeometry relative="1" as="geometry" />
        </mxCell>
        <mxCell id="YOo0viPbgiajMBb47PIU-82" value="No" style="edgeLabel;html=1;align=center;verticalAlign=middle;resizable=0;points=[];" parent="YOo0viPbgiajMBb47PIU-81" vertex="1" connectable="0">
          <mxGeometry x="-0.3067" y="2" relative="1" as="geometry">
            <mxPoint x="-2" y="-2" as="offset" />
          </mxGeometry>
        </mxCell>
        <mxCell id="RuaqV-nIeXjpc7R5jFOg-3" style="edgeStyle=orthogonalEdgeStyle;rounded=0;orthogonalLoop=1;jettySize=auto;html=1;entryX=0.5;entryY=0;entryDx=0;entryDy=0;exitX=1;exitY=0.5;exitDx=0;exitDy=0;" edge="1" parent="1" source="YOo0viPbgiajMBb47PIU-16" target="YOo0viPbgiajMBb47PIU-20">
          <mxGeometry relative="1" as="geometry" />
        </mxCell>
        <mxCell id="RuaqV-nIeXjpc7R5jFOg-4" value="Yes" style="edgeLabel;html=1;align=center;verticalAlign=middle;resizable=0;points=[];" vertex="1" connectable="0" parent="RuaqV-nIeXjpc7R5jFOg-3">
          <mxGeometry x="-0.32" relative="1" as="geometry">
            <mxPoint as="offset" />
          </mxGeometry>
        </mxCell>
        <mxCell id="YOo0viPbgiajMBb47PIU-16" value="New entity or do not reload?" style="rhombus;whiteSpace=wrap;html=1;rounded=1;" parent="1" vertex="1">
          <mxGeometry x="220" y="520" width="240" height="60" as="geometry" />
        </mxCell>
        <mxCell id="RuaqV-nIeXjpc7R5jFOg-9" style="edgeStyle=orthogonalEdgeStyle;rounded=0;orthogonalLoop=1;jettySize=auto;html=1;entryX=0.5;entryY=0;entryDx=0;entryDy=0;" edge="1" parent="1" source="YOo0viPbgiajMBb47PIU-18" target="YOo0viPbgiajMBb47PIU-6">
          <mxGeometry relative="1" as="geometry">
            <Array as="points">
              <mxPoint x="120" y="840" />
              <mxPoint x="340" y="840" />
            </Array>
          </mxGeometry>
        </mxCell>
        <mxCell id="YOo0viPbgiajMBb47PIU-18" value="Set &lt;b&gt;entity Id&lt;/b&gt; to&amp;nbsp;EditedEntityLoader" style="shape=process;whiteSpace=wrap;html=1;backgroundOutline=1;rounded=1;fillColor=#f5f5f5;strokeColor=#666666;fontColor=#333333;" parent="1" vertex="1">
          <mxGeometry x="20" y="600" width="200" height="40" as="geometry" />
        </mxCell>
        <mxCell id="RuaqV-nIeXjpc7R5jFOg-2" style="edgeStyle=orthogonalEdgeStyle;rounded=0;orthogonalLoop=1;jettySize=auto;html=1;entryX=0.5;entryY=0;entryDx=0;entryDy=0;" edge="1" parent="1" source="YOo0viPbgiajMBb47PIU-20" target="YOo0viPbgiajMBb47PIU-22">
          <mxGeometry relative="1" as="geometry" />
        </mxCell>
        <mxCell id="YOo0viPbgiajMBb47PIU-20" value="Merge to DataContext" style="shape=process;whiteSpace=wrap;html=1;backgroundOutline=1;rounded=1;fillColor=#f5f5f5;fontColor=#333333;strokeColor=#666666;" parent="1" vertex="1">
          <mxGeometry x="460" y="600" width="200" height="40" as="geometry" />
        </mxCell>
        <mxCell id="YOo0viPbgiajMBb47PIU-21" value="" style="edgeStyle=orthogonalEdgeStyle;rounded=0;orthogonalLoop=1;jettySize=auto;html=1;" parent="1" source="YOo0viPbgiajMBb47PIU-22" target="YOo0viPbgiajMBb47PIU-24" edge="1">
          <mxGeometry relative="1" as="geometry" />
        </mxCell>
        <mxCell id="YOo0viPbgiajMBb47PIU-22" value="InitEntityEvent" style="whiteSpace=wrap;html=1;rounded=1;" parent="1" vertex="1">
          <mxGeometry x="460" y="680" width="200" height="40" as="geometry" />
        </mxCell>
        <mxCell id="RuaqV-nIeXjpc7R5jFOg-8" style="edgeStyle=orthogonalEdgeStyle;rounded=0;orthogonalLoop=1;jettySize=auto;html=1;" edge="1" parent="1" source="YOo0viPbgiajMBb47PIU-24" target="YOo0viPbgiajMBb47PIU-6">
          <mxGeometry relative="1" as="geometry">
            <Array as="points">
              <mxPoint x="560" y="840" />
              <mxPoint x="340" y="840" />
            </Array>
          </mxGeometry>
        </mxCell>
        <mxCell id="YOo0viPbgiajMBb47PIU-24" value="Set to&amp;nbsp;&lt;b&gt;InstanceContainer&lt;/b&gt;" style="shape=process;whiteSpace=wrap;html=1;backgroundOutline=1;rounded=1;fillColor=#f5f5f5;strokeColor=#666666;fontColor=#333333;" parent="1" vertex="1">
          <mxGeometry x="460" y="760" width="200" height="40" as="geometry" />
        </mxCell>
        <mxCell id="RuaqV-nIeXjpc7R5jFOg-6" style="edgeStyle=orthogonalEdgeStyle;rounded=0;orthogonalLoop=1;jettySize=auto;html=1;entryX=0.5;entryY=0;entryDx=0;entryDy=0;" edge="1" parent="1" source="RuaqV-nIeXjpc7R5jFOg-5" target="YOo0viPbgiajMBb47PIU-11">
          <mxGeometry relative="1" as="geometry" />
        </mxCell>
        <mxCell id="RuaqV-nIeXjpc7R5jFOg-5" value="AfterInitEvent" style="rounded=1;whiteSpace=wrap;html=1;" vertex="1" parent="1">
          <mxGeometry x="240" y="200" width="200" height="40" as="geometry" />
        </mxCell>
        <mxCell id="RuaqV-nIeXjpc7R5jFOg-13" style="edgeStyle=orthogonalEdgeStyle;rounded=0;orthogonalLoop=1;jettySize=auto;html=1;entryX=0.5;entryY=0;entryDx=0;entryDy=0;" edge="1" parent="1" source="RuaqV-nIeXjpc7R5jFOg-10" target="RuaqV-nIeXjpc7R5jFOg-12">
          <mxGeometry relative="1" as="geometry" />
        </mxCell>
        <mxCell id="RuaqV-nIeXjpc7R5jFOg-10" value="UrlParamsChangedEvent" style="rounded=1;whiteSpace=wrap;html=1;" vertex="1" parent="1">
          <mxGeometry x="240" y="360" width="200" height="40" as="geometry" />
        </mxCell>
        <mxCell id="RuaqV-nIeXjpc7R5jFOg-14" style="edgeStyle=orthogonalEdgeStyle;rounded=0;orthogonalLoop=1;jettySize=auto;html=1;entryX=0.5;entryY=0;entryDx=0;entryDy=0;" edge="1" parent="1" source="RuaqV-nIeXjpc7R5jFOg-12" target="YOo0viPbgiajMBb47PIU-16">
          <mxGeometry relative="1" as="geometry" />
        </mxCell>
        <mxCell id="RuaqV-nIeXjpc7R5jFOg-12" value="setupEntityToEdit" style="shape=process;whiteSpace=wrap;html=1;backgroundOutline=1;rounded=1;fillColor=#f5f5f5;strokeColor=#666666;fontColor=#333333;" vertex="1" parent="1">
          <mxGeometry x="240" y="440" width="200" height="40" as="geometry" />
        </mxCell>
        <mxCell id="RuaqV-nIeXjpc7R5jFOg-15" value="" style="endArrow=none;dashed=1;html=1;rounded=0;exitX=1;exitY=0.5;exitDx=0;exitDy=0;entryX=0;entryY=0.5;entryDx=0;entryDy=0;" edge="1" parent="1" target="RuaqV-nIeXjpc7R5jFOg-16" source="RuaqV-nIeXjpc7R5jFOg-10">
          <mxGeometry width="50" height="50" relative="1" as="geometry">
            <mxPoint x="475" y="380" as="sourcePoint" />
            <mxPoint x="565" y="389" as="targetPoint" />
          </mxGeometry>
        </mxCell>
        <mxCell id="RuaqV-nIeXjpc7R5jFOg-16" value="Only in case of opening screen by URL" style="text;html=1;align=center;verticalAlign=middle;whiteSpace=wrap;rounded=0;fontSize=14;" vertex="1" parent="1">
          <mxGeometry x="480" y="348" width="150" height="64" as="geometry" />
        </mxCell>
      </root>
    </mxGraphModel>
  </diagram>
</mxfile>
